<svg width="282" height="98" viewBox="0 0 282 98" fill="none" xmlns="http://www.w3.org/2000/svg">
<g clip-path="url(#clip0_602_682)">
<path d="M279.554 21.0293C278.107 19.8718 275.672 19.293 272.271 19.293C270.655 19.293 269.136 19.4135 267.762 19.6306C266.363 19.8718 265.326 20.1129 264.626 20.33V40.0811C263.903 39.7917 263.131 39.5506 262.311 39.3094C260.165 38.7065 257.681 38.393 254.908 38.393C249.578 38.393 244.731 39.4782 240.317 41.6246C235.928 43.795 232.407 47.0748 229.779 51.464C227.246 55.8049 225.968 61.3516 225.968 68.1524C225.968 74.9531 227.198 80.0658 229.682 84.4549C232.214 88.7958 235.808 92.0274 240.438 94.1979C245.141 96.3442 250.711 97.4294 257.102 97.4294C261.515 97.4294 265.374 96.8989 268.678 95.8136C272.078 94.8008 274.828 93.6191 276.902 92.2203C278.59 91.2074 279.844 90.0981 280.615 88.8682C281.387 87.5418 281.773 85.9742 281.773 84.1173V27.396C281.773 24.3091 281.025 22.1869 279.554 21.0293ZM264.626 81.9227C263.855 82.3809 262.818 82.8391 261.515 83.2973C260.189 83.6832 258.694 83.8761 256.982 83.8761C252.834 83.8761 249.506 82.6221 247.046 80.0658C244.634 77.5095 243.452 73.5544 243.452 68.1524C243.452 64.4385 244.031 61.3998 245.189 58.9882C246.346 56.6007 247.962 54.8402 250.036 53.6827C252.134 52.5251 254.522 51.9463 257.223 51.9463C259.538 51.9463 261.588 52.3321 263.348 53.1039C263.782 53.2968 264.216 53.4897 264.626 53.7068V81.9227Z" fill="#FAD7B0"/>
<path d="M208.243 43.4816C203.444 40.0812 197.053 38.3931 189.022 38.3931C186.249 38.3931 183.355 38.6342 180.34 39.0924C177.398 39.4783 174.818 40.1294 172.575 41.0458C169.03 42.5169 167.245 44.8803 167.245 48.1119C167.245 49.5106 167.559 50.8611 168.186 52.1634C168.885 53.3933 169.681 54.3339 170.621 54.9368C172.84 54.0204 175.348 53.2004 178.146 52.5252C180.991 51.8258 183.885 51.464 186.828 51.464C190.59 51.464 193.484 52.0428 195.509 53.2004C197.583 54.358 198.62 56.2632 198.62 58.8918V60.2664L183.234 61.8822C176.819 62.5093 171.996 64.2456 168.765 67.0913C165.509 69.8888 163.893 73.8921 163.893 79.1494C163.893 85.2267 166.208 89.8329 170.839 92.9198C175.541 96.0066 181.836 97.5501 189.722 97.5501C194.111 97.5501 198.017 97.116 201.394 96.2719C204.866 95.5002 207.76 94.415 210.076 93.0404C211.619 92.1722 212.897 91.1834 213.91 90.0258C214.899 88.7959 215.405 87.2042 215.405 85.2749V58.9883C215.405 51.9705 213.018 46.8096 208.243 43.4816ZM198.741 82.9598C197.969 83.418 196.691 83.8521 194.931 84.2379C193.218 84.5515 191.482 84.6962 189.722 84.6962C186.466 84.6962 184.127 84.1656 182.655 83.0804C181.184 81.9228 180.461 80.4035 180.461 78.5706C180.461 76.7378 181.233 75.315 182.776 74.3985C184.319 73.458 186.393 72.9275 189.022 72.7828L198.741 71.8422V82.9598Z" fill="#FAD7B0"/>
<path d="M154.415 68.2489C155.718 67.019 156.369 65.2103 156.369 62.8228C156.369 58.0236 155.259 53.8274 153.017 50.21C150.774 46.5685 147.663 43.7227 143.635 41.6246C139.704 39.4783 135.074 38.3931 129.744 38.3931C126.127 38.3931 122.606 38.9719 119.206 40.1294C115.902 41.287 112.887 43.0716 110.186 45.4591C107.558 47.7743 105.435 50.7406 103.82 54.358C102.276 57.9995 101.504 62.2681 101.504 67.2119C101.504 73.9403 102.855 79.5353 105.556 83.9968C108.257 88.4824 111.971 91.8345 116.673 94.0773C121.448 96.3202 126.826 97.4295 132.759 97.4295C136.859 97.4295 140.476 97.0436 143.635 96.2719C146.891 95.5002 149.399 94.3426 151.16 92.7992C153.017 91.2558 153.933 89.3265 153.933 87.0113C153.933 85.6126 153.547 84.3103 152.775 83.0804C152.1 81.8504 151.16 80.8858 150.002 80.1864C148.242 81.1752 145.926 82.1398 143.057 83.0804C140.211 83.9968 137.148 84.455 133.917 84.455C129.913 84.455 126.441 83.5868 123.498 81.8022C121.135 80.307 119.519 78.0642 118.603 75.0497L148.965 70.5641C151.28 70.2747 153.089 69.5029 154.415 68.2489ZM117.566 63.4739C117.879 59.7118 119.085 56.8178 121.183 54.7197C123.498 52.3322 126.392 51.1264 129.865 51.1264C133.338 51.1264 135.701 52.0428 137.389 53.8998C139.077 55.7567 140.018 57.7584 140.163 59.9288L117.566 63.4739Z" fill="#FAD7B0"/>
<path d="M92.1473 84.6961C90.7486 82.7668 89.181 80.6928 87.3964 78.45C85.7083 76.2072 83.8996 73.892 81.9703 71.5045C81.2227 70.564 80.4992 69.5994 79.7998 68.6347C83.779 66.6089 86.9623 63.8838 89.2534 60.5076C91.8097 56.7937 93.0637 52.6216 93.0637 47.9912C93.0637 40.5152 90.4592 34.6068 85.2019 30.29C79.9445 25.9008 72.1309 23.6821 61.7127 23.6821C57.9988 23.6821 54.4055 23.8751 50.9328 24.2609C47.5324 24.6468 44.5661 25.322 42.0339 26.2384C40.6351 26.6967 39.5258 27.3478 38.6576 28.216C37.8135 29.06 37.4036 30.2176 37.4036 31.6887V88.1688C37.4036 91.2557 38.0788 93.4261 39.4776 94.6561C40.9486 95.886 43.4085 96.513 46.8812 96.513C48.497 96.513 50.0887 96.3924 51.6321 96.1513C53.1756 96.0066 54.2849 95.8137 54.9843 95.5725V72.0833H63.4973L75.0248 89.7846C76.3271 91.8827 77.7258 93.5708 79.1728 94.8731C80.7162 96.1272 82.9349 96.7301 85.7806 96.7301C88.0235 96.7301 90.0251 96.1272 91.8097 94.8731C93.5702 93.5708 94.8001 91.7621 95.4995 89.447C94.6554 88.1206 93.5461 86.553 92.1473 84.6961ZM71.6486 55.8772C69.3334 57.5654 66.2465 58.4094 62.3879 58.4094H54.8637V38.5136C55.8766 38.2724 56.9136 38.1277 57.9988 38.0554C59.084 37.9589 60.2657 37.9348 61.5921 37.9348C66.2224 37.9348 69.6469 38.8271 71.8897 40.5876C74.1325 42.2998 75.2419 44.8079 75.2419 48.1118C75.2419 51.4157 74.0602 54.0926 71.6486 55.8772Z" fill="#FAD7B0"/>
<path d="M21.9451 47.8948V95.5725C21.2458 95.8137 20.2088 96.0066 18.81 96.1513C17.4354 96.3925 15.9161 96.513 14.3003 96.513C10.9964 96.513 8.56064 95.9342 7.01721 94.7767C5.54612 93.6191 4.82263 91.521 4.82263 88.5065V40.8287C5.49789 40.5876 6.559 40.3705 7.93362 40.1294C9.40471 39.8882 10.9481 39.7917 12.5639 39.7917C15.892 39.7917 18.2795 40.3705 19.7506 41.5281C21.2216 42.5892 21.9451 44.7115 21.9451 47.8948Z" fill="#FAD7B0"/>
</g>
<path d="M11.1879 1.46772C12.2617 -0.48924 15.2307 -0.489242 16.3045 1.46772L26.1077 19.3337C30.3221 27.0143 24.4082 36.1743 15.2349 36.1743H12.2575C3.08427 36.1743 -2.82968 27.0144 1.38472 19.3337L11.1879 1.46772Z" fill="#FF8528"/>
<path d="M12.0738 14.2106C12.7627 12.6274 14.729 12.6274 15.4179 14.2106L19.6579 23.9546C21.5224 28.2394 18.8108 33.2808 14.6418 33.2808H12.85C8.68091 33.2808 5.96935 28.2394 7.83381 23.9546L12.0738 14.2106Z" fill="#FFBB3F"/>
<defs>
<clipPath id="clip0_602_682">
<rect width="276.95" height="78.257" fill="white" transform="translate(4.82263 19.293)"/>
</clipPath>
</defs>
</svg>
